<?xml version="1.0" encoding="iso-8859-1"?>
<!-- Generator: Adobe Illustrator 19.1.0, SVG Export Plug-In . SVG Version: 6.00 Build 0)  -->
<svg version="1.1" id="Capa_1" xmlns="http://www.w3.org/2000/svg" xmlns:xlink="http://www.w3.org/1999/xlink" x="0px" y="0px"
	 viewBox="0 0 64 64" style="enable-background:new 0 0 64 64;" xml:space="preserve">
<g>
	<g>
		<path d="M27.147,0c-3.309,0-6,2.691-6,6v12.586l-19,18.707v1.414L27.44,64h1.414l25.765-25.911l6.67-1.025l0.565-1.88L33.854,7
			h-0.707V6C33.146,2.691,30.456,0,27.147,0z M23.147,6c0-2.206,1.794-4,4-4s4,1.794,4,4v2.586l-8,8V6z M59.026,35.293l-5.021,0.717
			l-0.565,0.283L28.147,61.586L4.561,38l26.586-26.586V27h2V9.414L59.026,35.293z"/>
	</g>
</g>
<g>
</g>
<g>
</g>
<g>
</g>
<g>
</g>
<g>
</g>
<g>
</g>
<g>
</g>
<g>
</g>
<g>
</g>
<g>
</g>
<g>
</g>
<g>
</g>
<g>
</g>
<g>
</g>
<g>
</g>
</svg>
